<?xml version="1.0" encoding="utf-8"?>
<!-- Generator: Adobe Illustrator 16.0.0, SVG Export Plug-In . SVG Version: 6.00 Build 0)  -->
<!DOCTYPE svg PUBLIC "-//W3C//DTD SVG 1.1//EN" "http://www.w3.org/Graphics/SVG/1.1/DTD/svg11.dtd">
<svg version="1.1" xmlns="http://www.w3.org/2000/svg" xmlns:xlink="http://www.w3.org/1999/xlink" x="0px" y="0px" width="1320px"
	 height="302px" viewBox="0 0 1320 302" enable-background="new 0 0 1320 302" xml:space="preserve">
<g id="Layer_1" display="none">
	<g display="inline">
		<path fill="#FFFFFF" d="M-48.068,13.666h-87.681V9.644H43.635v4.022h-87.681v277.522h-4.022V13.666z"/>
		<path fill="#FFFFFF" d="M78.221,291.188h-4.022V9.644h4.022V291.188z"/>
		<path fill="#FFFFFF" d="M264.443,263.034L140.965,18.493v272.696h-4.022V9.644h4.022l125.488,247.759L391.942,9.644h4.022v281.544
			h-4.022V18.493L268.465,263.034H264.443z"/>
		<path fill="#FFFFFF" d="M422.507,9.644h120.662v4.022h-116.64v131.119h102.965v4.022H426.529v138.358h121.466v4.022H422.507V9.644
			z"/>
		<path fill="#FFFFFF" d="M653.369,13.666h-87.681V9.644h179.384v4.022h-87.681v277.522h-4.022V13.666z"/>
		<path fill="#FFFFFF" d="M754.722,176.56l-44.645,114.629h-4.827L815.455,9.644h4.022l110.204,281.544h-4.826L880.21,176.56
			H754.722z M817.466,15.677l-61.135,156.86h122.271L817.466,15.677z"/>
		<path fill="#FFFFFF" d="M966.681,9.644h64.353c45.048,0,72.8,28.154,72.8,67.973c0,44.243-33.383,62.342-55.505,65.962
			c27.351,2.815,65.158,22.523,65.158,72.799c0,45.449-30.971,74.811-82.453,74.811h-64.353V9.644z M1031.033,141.568
			c38.21,0,68.777-23.73,68.777-63.951c0-38.209-27.35-63.951-68.777-63.951h-60.33v127.902H1031.033z M1031.033,287.166
			c48.266,0,78.431-27.35,78.431-70.788c0-47.862-36.198-70.788-78.431-70.788h-60.33v141.576H1031.033z"/>
		<path fill="#FFFFFF" d="M1152.499,287.166h121.466v4.022h-125.488V9.644h4.022V287.166z"/>
		<path fill="#FFFFFF" d="M1302.114,9.644h120.662v4.022h-116.64v131.119h102.965v4.022h-102.965v138.358h121.466v4.022h-125.488
			V9.644z"/>
	</g>
</g>
<g id="Layer_2">
	<g>
		<path fill="#FFFFFF" d="M9.73,240.901c11.262,28.959,32.579,53.494,76.822,53.494c40.623,0,71.593-24.133,71.593-66.767
			c0-94.921-143.588-68.777-143.588-157.665c0-35.394,26.144-63.549,70.789-63.549c42.231,0,61.135,25.741,69.179,43.036
			l-3.62,1.609c-7.642-16.088-25.741-40.623-65.56-40.623c-42.232,0-66.767,26.948-66.767,59.526
			c0,84.866,143.588,60.331,143.588,157.665c0,43.438-31.372,70.788-75.615,70.788c-47.46,0-69.18-26.947-80.441-56.309
			L9.73,240.901z"/>
		<path fill="#FFFFFF" d="M215.258,178.56l-44.645,114.629h-4.827L275.991,11.644h4.022l110.205,281.544h-4.827L340.747,178.56
			H215.258z M278.002,17.677l-61.135,156.86h122.271L278.002,17.677z"/>
		<path fill="#FFFFFF" d="M430.434,15.666h-87.681v-4.022h179.384v4.022h-87.681v277.522h-4.022V15.666z"/>
		<path fill="#FFFFFF" d="M544.657,11.644h3.62l195.875,273.5v-273.5h4.022v281.544h-3.62L548.679,19.286v273.902h-4.022V11.644z"/>
		<path fill="#FFFFFF" d="M810.915,293.188h-4.022V11.644h4.022V293.188z"/>
		<path fill="#FFFFFF" d="M989.494,6.415c47.862,0,78.832,22.926,89.692,33.383l-2.815,2.815
			c-9.653-8.849-39.417-32.176-86.877-32.176c-73.201,0-134.337,59.124-134.337,141.979s61.136,141.979,134.337,141.979
			c49.069,0,78.431-23.328,88.083-32.177l2.815,2.815c-12.468,10.859-41.024,33.383-90.898,33.383
			c-77.224,0-138.359-62.744-138.359-146.001C851.135,69.16,912.271,6.415,989.494,6.415z"/>
		<path fill="#FFFFFF" d="M1137.1,178.56l-44.645,114.629h-4.827l110.205-281.544h4.022l110.204,281.544h-4.826l-44.646-114.629
			H1137.1z M1199.844,17.677l-61.135,156.86h122.271L1199.844,17.677z"/>
	</g>
</g>
</svg>
