<?xml version="1.0" encoding="UTF-8" standalone="no"?>
<svg width="45px" height="45px" viewBox="0 0 45 45" version="1.1" xmlns="http://www.w3.org/2000/svg" xmlns:xlink="http://www.w3.org/1999/xlink">
    <!-- Generator: Sketch 3.8.3 (29802) - http://www.bohemiancoding.com/sketch -->
    <title>icon-phone</title>
    <desc>Created with Sketch.</desc>
    <defs></defs>
    <g id="Page-1" stroke="none" stroke-width="1" fill="none" fill-rule="evenodd">
        <g id="icon-phone" fill="#000000">
            <g transform="translate(0.000000, 6.000000)">
                <path d="M40.2997059,17.6470588 L41.9558824,17.6470588 C43.5167647,17.6470588 45,16.2714706 45,14.7105882 L45,11.445 C45,9.885 43.5158824,8.82352941 41.9558824,8.82352941 L38.4838235,8.82352941 C38.4644118,8.74235294 38.4485294,8.67 38.4264706,8.57911765 C38.1855882,7.62441176 37.7417647,6.36882353 36.9564706,4.98441176 C35.0620588,1.64558824 32.1141176,0 28.4302941,0 L10.6764706,0 C6.99264706,0 4.04470588,1.66323529 2.15029412,5.00294118 C0.759705882,7.45411765 0.437647059,9.68647059 0.424411765,9.78882353 L0.297352941,10.5882353 L7.12058824,10.5882353 L7.30588235,10.0967647 C7.30852941,10.0870588 7.59970588,8.98058824 8.16088235,8.01529412 C8.61705882,7.23176471 9.345,6.17647059 10.2247059,6.17647059 L28.8811765,6.17647059 C29.7608824,6.17647059 30.4888235,7.30323529 30.9441176,8.08676471 C31.5052941,9.05205882 31.7964706,9.99 31.7991176,9.99970588 L31.9852941,10.5882353 L38.745,10.5882353 L38.8085294,10.5882353 L41.955,10.5882353 C42.5426471,10.5882353 43.2344118,10.8582353 43.2344118,11.445 L43.2344118,14.7105882 C43.2352941,15.2982353 42.5426471,15.8823529 41.9558824,15.8823529 L40.2997059,15.8823529 C38.7397059,15.8823529 37.47,16.9694118 37.47,18.5294118 C37.47,20.0902941 38.7388235,21.1764706 40.2997059,21.1764706 L41.9558824,21.1764706 C42.5435294,21.1764706 43.0208824,21.9132353 43.0208824,22.5 C43.0208824,23.0867647 42.5426471,23.8235294 41.9558824,23.8235294 L40.5882353,23.8235294 L40.5882353,25.5882353 L41.9558824,25.5882353 C43.5167647,25.5882353 44.7855882,24.06 44.7855882,22.5 C44.7855882,20.9391176 43.5167647,19.4117647 41.9558824,19.4117647 L40.2997059,19.4117647 C39.7120588,19.4117647 39.2347059,19.1161765 39.2347059,18.5294118 C39.2347059,17.9426471 39.7120588,17.6470588 40.2997059,17.6470588 L40.2997059,17.6470588 Z M33.2770588,8.82352941 C33.1085294,8.82352941 32.8402941,7.69235294 32.4697059,7.05617647 C31.2220588,4.91029412 29.8297059,4.41176471 28.8811765,4.41176471 L10.2247059,4.41176471 C9.27617647,4.41176471 7.88294118,4.91029412 6.63529412,7.05617647 C6.26647059,7.69323529 5.99823529,8.82352941 5.82882353,8.82352941 L2.37705882,8.82352941 C2.58441176,7.94117647 2.97882353,6.97323529 3.68470588,5.72911765 C5.26941176,2.93647059 7.62176471,1.76470588 10.6764706,1.76470588 L28.4302941,1.76470588 C31.485,1.76470588 33.8364706,2.93558824 35.4211765,5.73 C36.1270588,6.97411765 36.5223529,7.94117647 36.7288235,8.82352941 L33.2770588,8.82352941 L33.2770588,8.82352941 Z" id="Shape"></path>
                <rect id="Rectangle-path" x="0" y="12.3529412" width="7.05882353" height="1.76470588"></rect>
                <rect id="Rectangle-path" x="31.7647059" y="12.3529412" width="7.05882353" height="1.76470588"></rect>
                <path d="M36.2594118,21.345 C35.6541176,18.7791176 33.0158824,16.7647059 30.3811765,16.7647059 L28.8432353,16.7647059 C28.8388235,16.7170588 28.8238235,16.6676471 28.8194118,16.62 C28.365,11.97 24.4261765,8.32323529 19.6579412,8.32323529 C14.8905882,8.32323529 10.9552941,11.97 10.5008824,16.62 C10.4964706,16.6676471 10.4955882,16.7161765 10.4911765,16.7647059 C10.4902941,16.7717647 10.5238235,16.7788235 10.5238235,16.7858824 C10.5158824,16.8864706 10.5158824,16.9879412 10.5167647,17.0894118 C10.5141176,16.9482353 10.5123529,16.8291176 10.5229412,16.7858824 C10.5238235,16.7788235 10.4885294,16.7717647 10.4894118,16.7647059 L8.91705882,16.7647059 C6.28147059,16.7647059 3.64411765,18.7791176 3.03794118,21.345 L1.60588235,27.3688235 C1.29264706,28.6932353 1.54235294,30.0661765 2.30911765,31.035 C3.075,32.0038235 4.24676471,32.6470588 5.60735294,32.6470588 L33.6891176,32.6470588 C35.0497059,32.6470588 36.2214706,31.9852941 36.9882353,31.0173529 C37.755,30.0494118 38.0038235,28.6579412 37.6914706,27.3326471 L36.2594118,21.345 L36.2594118,21.345 Z M29.1176471,17.5376471 L29.1176471,17.6664706 C29.1176471,17.7855882 29.0691176,17.9505882 29.01,18.1058824 C29.0585294,17.9170588 29.1176471,17.7282353 29.1176471,17.5376471 L29.1176471,17.5376471 Z M28.9526471,17.265 C28.9685294,17.3417647 28.98,17.4185294 28.9808824,17.4908824 C28.9808824,17.415 28.9641176,17.34 28.9526471,17.265 L28.9526471,17.265 Z M19.6482353,10.0879412 C23.7476471,10.0879412 27.0820588,13.4223529 27.0820588,17.5217647 C27.0820588,21.6211765 23.7467647,24.9555882 19.6482353,24.9555882 C15.5497059,24.9555882 12.2144118,21.6202941 12.2144118,17.5217647 C12.2144118,13.4232353 15.5497059,10.0879412 19.6482353,10.0879412 L19.6482353,10.0879412 Z M35.9708824,29.1202941 C35.8976471,29.4273529 35.7829412,29.7141176 35.6047059,29.94 C35.1802941,30.4764706 34.5,30.8823529 33.69,30.8823529 L5.60735294,30.8823529 C4.79735294,30.8823529 4.11705882,30.4588235 3.69264706,29.9223529 C3.51352941,29.6964706 3.39970588,29.4185294 3.32647059,29.1211765 C3.26911765,28.8864706 3.23294118,28.6420588 3.24352941,28.3844118 C3.25147059,28.1929412 3.27705882,27.9970588 3.32294118,27.8020588 L4.755,21.7817647 C5.17676471,19.9976471 7.08176471,18.5294118 8.91617647,18.5294118 L10.4938235,18.5294118 C10.4744118,18.5294118 10.5326471,18.2276471 10.5661765,17.9505882 C10.5555882,18.0961765 10.5485294,18.2408824 10.5626471,18.3847059 C10.9994118,23.0532353 14.9029412,26.7202941 19.6826471,26.7202941 C24.4138235,26.7202941 28.4285294,23.1282353 28.9358824,18.5294118 L30.3811765,18.5294118 C32.2155882,18.5294118 34.1205882,19.965 34.5423529,21.7508824 L35.9744118,27.7747059 C36.0220588,27.9767647 36.0476471,28.1814706 36.0538235,28.3844118 C36.0617647,28.6394118 36.0273529,28.8847059 35.9708824,29.1202941 L35.9708824,29.1202941 Z" id="Shape"></path>
                <circle id="Oval" cx="19.6482353" cy="12.4517647" r="1.13647059"></circle>
                <circle id="Oval" cx="19.6482353" cy="22.5917647" r="1.13647059"></circle>
                <circle id="Oval" cx="24.7182353" cy="17.5217647" r="1.13647059"></circle>
                <circle id="Oval" cx="14.5791176" cy="17.5217647" r="1.13647059"></circle>
                <circle id="Oval" cx="23.2332353" cy="21.1067647" r="1.13647059"></circle>
                <circle id="Oval" cx="16.0632353" cy="13.9367647" r="1.13647059"></circle>
                <circle id="Oval" cx="16.0632353" cy="21.1067647" r="1.13647059"></circle>
                <circle id="Oval" cx="23.2332353" cy="13.9367647" r="1.13647059"></circle>
            </g>
        </g>
    </g>
</svg>